# MagicaVoxel @ Ephtracy

# group
o 

# material
mtllib platform.mtl
usemtl palette

# normals
vn -1 0 0
vn 1 0 0
vn 0 0 1
vn 0 0 -1
vn 0 -1 0
vn 0 1 0

# texcoords
vt 0.134766 0.5
vt 0.302734 0.5
vt 0.306641 0.5

# verts
v 0 2 0
v 0 2 -4
v 0 4 0
v 0 4 -0.2
v 0 4.1 -0.2
v 0 4.1 -4
v 3.9 2.1 0
v 3.9 2.1 -0.1
v 3.9 2.1 -3.9
v 3.9 2.1 -4
v 3.9 3.9 0
v 3.9 3.9 -0.1
v 3.9 4 -3.9
v 3.9 4 -4
v 0.1 2.1 0
v 0.1 2.1 -0.1
v 0.1 2.1 -3.9
v 0.1 2.1 -4
v 0.1 3.9 0
v 0.1 3.9 -0.1
v 0.1 4 -3.9
v 0.1 4 -4
v 4 2 0
v 4 2 -4
v 4 4 0
v 4 4 -0.2
v 4 4.1 -0.2
v 4 4.1 -4
v 0 2 0
v 0 4 0
v 0.1 2.1 0
v 0.1 3.9 0
v 3.9 2.1 0
v 3.9 3.9 0
v 4 2 0
v 4 4 0
v 0.1 2.1 -0.1
v 0.1 3.9 -0.1
v 3.9 2.1 -0.1
v 3.9 3.9 -0.1
v 0 4 -0.2
v 0 4.1 -0.2
v 4 4 -0.2
v 4 4.1 -0.2
v 0.1 2.1 -3.9
v 0.1 4 -3.9
v 3.9 2.1 -3.9
v 3.9 4 -3.9
v 0 2 -4
v 0 4.1 -4
v 0.1 2.1 -4
v 0.1 4 -4
v 3.9 2.1 -4
v 3.9 4 -4
v 4 2 -4
v 4 4.1 -4
v 0 2 0
v 4 2 0
v 0 2 -4
v 4 2 -4
v 0.1 3.9 0
v 3.9 3.9 0
v 0.1 3.9 -0.1
v 3.9 3.9 -0.1
v 0.1 4 -3.9
v 3.9 4 -3.9
v 0.1 4 -4
v 3.9 4 -4
v 0.1 2.1 0
v 3.9 2.1 0
v 0.1 2.1 -0.1
v 3.9 2.1 -0.1
v 0.1 2.1 -3.9
v 3.9 2.1 -3.9
v 0.1 2.1 -4
v 3.9 2.1 -4
v 0 4 0
v 4 4 0
v 0 4 -0.2
v 4 4 -0.2
v 0 4.1 -0.2
v 4 4.1 -0.2
v 0.2 4.1 -0.8
v 3.6 4.1 -0.8
v 0.7 4.1 -1.3
v 3.1 4.1 -1.3
v 0.7 4.1 -3.1
v 3.1 4.1 -3.1
v 0.2 4.1 -3.6
v 3.6 4.1 -3.6
v 0 4.1 -4
v 4 4.1 -4

# faces
f 3/3/1 2/3/1 1/3/1
f 4/3/1 2/3/1 3/3/1
f 5/3/1 2/3/1 4/3/1
f 6/3/1 2/3/1 5/3/1
f 11/3/1 8/3/1 7/3/1
f 12/3/1 8/3/1 11/3/1
f 13/3/1 10/3/1 9/3/1
f 14/3/1 10/3/1 13/3/1
f 15/3/2 16/3/2 19/3/2
f 19/3/2 16/3/2 20/3/2
f 17/3/2 18/3/2 21/3/2
f 21/3/2 18/3/2 22/3/2
f 23/3/2 24/3/2 25/3/2
f 25/3/2 24/3/2 26/3/2
f 26/3/2 24/3/2 27/3/2
f 27/3/2 24/3/2 28/3/2
f 31/3/3 30/3/3 29/3/3
f 32/3/3 30/3/3 31/3/3
f 33/3/3 31/3/3 29/3/3
f 34/3/3 30/3/3 32/3/3
f 35/3/3 33/3/3 29/3/3
f 35/3/3 34/3/3 33/3/3
f 36/3/3 30/3/3 34/3/3
f 36/3/3 34/3/3 35/3/3
f 39/3/3 38/3/3 37/3/3
f 40/3/3 38/3/3 39/3/3
f 43/3/3 42/3/3 41/3/3
f 44/3/3 42/3/3 43/3/3
f 45/3/4 46/3/4 47/3/4
f 47/3/4 46/3/4 48/3/4
f 49/3/4 50/3/4 51/3/4
f 51/3/4 50/3/4 52/3/4
f 49/3/4 51/3/4 53/3/4
f 52/3/4 50/3/4 54/3/4
f 49/3/4 53/3/4 55/3/4
f 53/3/4 54/3/4 55/3/4
f 54/3/4 50/3/4 56/3/4
f 55/3/4 54/3/4 56/3/4
f 59/3/5 58/3/5 57/3/5
f 60/3/5 58/3/5 59/3/5
f 63/3/5 62/3/5 61/3/5
f 64/3/5 62/3/5 63/3/5
f 67/3/5 66/3/5 65/3/5
f 68/3/5 66/3/5 67/3/5
f 69/3/6 70/3/6 71/3/6
f 71/3/6 70/3/6 72/3/6
f 73/3/6 74/3/6 75/3/6
f 75/3/6 74/3/6 76/3/6
f 77/3/6 78/3/6 79/3/6
f 79/3/6 78/3/6 80/3/6
f 81/3/6 82/3/6 83/3/6
f 83/3/6 82/3/6 84/3/6
f 83/1/6 84/1/6 85/1/6
f 85/1/6 84/1/6 86/1/6
f 83/1/6 85/1/6 87/1/6
f 85/2/6 86/2/6 87/2/6
f 86/1/6 84/1/6 88/1/6
f 87/2/6 86/2/6 88/2/6
f 81/3/6 83/3/6 89/3/6
f 83/1/6 87/1/6 89/1/6
f 87/1/6 88/1/6 89/1/6
f 88/1/6 84/1/6 90/1/6
f 89/1/6 88/1/6 90/1/6
f 84/3/6 82/3/6 90/3/6
f 81/3/6 89/3/6 91/3/6
f 89/3/6 90/3/6 91/3/6
f 90/3/6 82/3/6 92/3/6
f 91/3/6 90/3/6 92/3/6
